<?xml version="1.0" encoding="UTF-8" standalone="no"?>
<!-- Maliki Atelier wordmark. Source has unfilled paths (default black);
     setting fill="#ffffff" on the root makes them render white while the
     explicitly-coloured gold paths stay gold. -->
<svg xmlns="http://www.w3.org/2000/svg" viewBox="0 0 250 250" version="1.1" fill="#ffffff" style="fill-rule:evenodd;clip-rule:evenodd;stroke-linejoin:round;stroke-miterlimit:2;">
    <path d="M158,84.01C168.42,62.13 181.18,36.55 194.77,36.48C199.3,36.45 200.09,39.41 199.25,45.04C197.07,59.75 181.93,82.77 167.45,98.15C164.2,93.79 162.76,90.08 159.95,85.64L158,84.01ZM166.96,97.56C179.9,83.21 195.99,60.16 198.92,44.74C199.81,40.21 198.69,37.61 196.23,37.7C185.75,38.08 171.67,65.65 161.03,87.24C163.2,90.52 165.13,94.39 166.96,97.56Z" style="fill-rule:nonzero;"/>
    <path d="M167.1,97.66C171.12,103.62 174.81,111.02 183.79,112.04C190.1,112.75 198.22,108.68 200.75,107.17L200.41,106.83C197.32,108.68 190.24,111.82 184.02,111.02C176.54,110.06 173.06,102.88 168.32,96.86L167.1,97.66Z" style="fill-rule:nonzero;"/>
    <path d="M134.2,84.39C141.66,78.76 150.26,77.93 157.3,83.07C158.89,84.27 160.88,86.28 161.83,88.08L160.82,89.21C159.55,87.07 158.12,85.06 156.53,83.91C148.73,78.47 139.8,81.15 133.86,86.62L134.2,84.39Z" style="fill:rgb(209,176,117);fill-rule:nonzero;"/>
    <path d="M160.4,85.76L158.12,84.19L142.77,114.24C138.69,115.36 133.21,114.96 130.52,110.31C126.06,103.74 127.74,91.22 134.4,85.12L133.89,85.41C127.48,90.94 124.93,102.96 128.77,110.11C131.68,115.22 136.98,115.48 142.06,114.46L134.78,131.77C132.36,138.17 131.14,147.94 138.07,148.9C146.88,150.14 156.84,136.87 162.09,130.24L162.43,129.31L161.8,128.91C156.61,136.15 146.43,148.73 139.87,147.99C135.87,147.53 137.22,140.85 138.92,136.7L160.4,85.76Z" style="fill:rgb(209,176,117);fill-rule:nonzero;"/>
    <path d="M166.9,97.9C160.88,104.73 156.12,109.78 148.89,112.72L149.32,111.73C155.72,108.99 160.82,103.42 166.42,97.27L166.9,97.9Z" style="fill:rgb(209,176,117);fill-rule:nonzero;"/>
    <path d="M34.6,56.85C44.14,49.31 53.26,45.36 60.68,45.5C66.91,45.62 68.37,52.87 67.92,57.17C67.02,65.84 62.88,75.89 59.07,85.23C65.41,77.36 70.98,68.69 75.89,68.72C79.72,68.75 80.04,74.13 78.61,79.3C74.63,93.83 55.75,130.24 47.04,151.44L46.61,152.81C61.84,127.77 88.78,75.21 104.18,61.81C107.86,60.03 109.36,62.67 109.01,67.06C108.17,77.67 89.9,111.73 77.17,143.78C69.22,165.09 62.29,183.1 62.97,199.07C63.31,207.16 67.57,211.98 76.45,211.78C87.86,211.5 101.05,201.61 110.47,190.53L111.1,191.13C101.89,203.43 88.07,212.97 74.88,212.72C65.12,212.52 59.7,203.96 59.7,194.1C59.7,178.36 68.88,156.71 76.99,136.75C87.97,108.62 104.46,76.17 106.75,64.01C107.2,61.66 105.44,62.01 104.43,62.81C90.1,74.27 70.09,115.19 51.27,147.02C46.9,154.67 45.51,157.58 43.86,157.24C40.31,156.47 44.82,145.38 49.01,136.18L73.51,86.22C75.86,81.23 77.84,76.31 77.67,72.7C77.56,70.87 76.14,70.01 74.71,70.61C68.31,73.44 61.84,83.82 57.65,92.36L37.91,128.91L36.16,119.61L51.16,95.45C58.3,81.91 64.92,63.71 64.92,53.15C64.92,48.63 62.62,46.22 58.94,46.48C52.12,46.93 40.34,56.85 35.96,61.21L34.6,56.85Z" style="fill-rule:nonzero;"/>
    <path d="M34.72,57.02C18.99,68.72 5.52,88.88 5,107.11C4.83,113.92 7.96,118.16 12.72,118.11C22.81,117.99 35.31,101.08 39.32,92.74C40.17,91.11 40.62,88.7 41.41,87.82L41.35,87.85L41.47,87.79L41.3,87.82L41.32,87.76L41.55,87.71L41.15,87.74L41.32,87.68L40.98,87.74L40.81,87.76L40.59,87.79L40.42,87.85C39.97,88.99 39.43,90.91 38.59,92.71C33.94,102.51 22.73,117.25 12.78,117.42C8.41,117.51 5.52,113.55 5.69,106.97C6.14,89.93 19.33,69.41 34.83,57.82L34.72,57.02Z" style="fill:rgb(209,176,117);fill-rule:nonzero;"/>
    <path d="M35.7,61.47C28.66,70.16 20.18,83.99 19.22,93.22C18.99,95.48 19.16,96.86 19.84,97.72L20.29,97.41C19.7,96.55 19.53,95.42 19.76,93.51C20.82,84.39 29.75,70.78 36.16,62.1L35.7,61.47Z" style="fill:rgb(209,176,117);fill-rule:nonzero;"/>
    <path d="M35.48,119.1C26.27,133.81 13.08,155.08 10.01,162.18C8.75,165.43 9.09,167.63 10.49,167.49C18.77,166.52 29.92,144.98 37.15,130.53L36.81,119.21L35.48,119.1ZM11.23,163.86C13.76,157.58 26.02,137.04 36.02,121.07L36.19,122.18C26.24,139.75 15.13,160.85 11.12,165.03C10.38,165.78 10.72,165.18 11.23,163.86Z" style="fill:rgb(209,176,117);fill-rule:nonzero;"/>
    <path d="M116.9,120.8L122.32,120.8C117.72,128.89 112.14,139.39 112.14,144.9C112.14,146.89 112.98,147.63 114.44,147.54C121.81,147 132.94,134.89 137.64,131L138.14,131.6C132.77,137.16 123,148.54 114.33,148.54C110.55,148.54 108.37,146.32 108.71,142.11C108.88,139.53 109.84,136.56 111.05,133.74C105.75,141.11 100.12,148.43 94.2,148.43C89.78,148.43 88.82,143.99 89.61,139.99C91.31,131.49 100.34,121.11 109.22,121.11C112.95,121.11 114.89,122.28 115.74,124.89L116.9,120.8ZM111.05,123.02C104.78,123.02 94.74,135.99 93.77,143.7C93.37,146.8 94.51,147.34 95.67,147.26C100.94,146.8 112,131.43 113.84,126.29C113.44,124.1 112.65,123.02 111.05,123.02Z" style="fill-rule:nonzero;"/>
    <path d="M167.7,121.1L172.12,121.1L171.1,123.32C166.4,132.11 161.6,141.65 161.6,145.49C161.6,147.22 162.56,148.33 164.45,148.13C171.1,147.45 179.21,138.73 185.23,131.08L185.97,131.59C179.81,139.92 172.79,149.19 163.74,149.19C159.29,149.19 157.61,146.2 157.78,142.76C158.12,137.12 163.37,128.43 166.85,121.81L167.7,121.1ZM173.44,110.28C173.44,107.71 175.14,108.05 176.1,108.05C178.39,108.05 177.49,110.59 177.49,111.56C177.49,112.89 176.49,113.78 175.17,113.78C173.64,113.78 173.13,112.35 173.44,110.28Z" style="fill-rule:nonzero;"/>
    <path d="M197.1,109.2L205.35,91.66C213.04,75.16 220.27,59.79 230.04,59.79C233.52,59.79 234.03,63.22 233.13,67.65C230.32,80.17 216.5,97.25 202.34,107.41L192.1,130.69C197.52,128.78 205.15,119.77 211.81,119.77C213.8,119.77 214.14,120.71 213.69,122.34C212.32,127.18 202.7,131.55 194.37,133C196.9,136.74 196.17,142.37 199.89,150.35C203.38,157.96 209.69,162.25 217.69,162.25C226.23,162.25 232.69,156.68 239.21,150.06L239.77,150.66C233.37,158.75 227.26,163.27 216.33,163.27C203.1,163.27 197.8,152.65 194.99,143.14C193.83,139.05 193.04,133.94 191.1,133.94L183.74,148.46L178.05,148.46L197.1,109.2ZM203.78,104.75C215.82,94.89 228.6,77.8 232.33,67.48C233.69,63.62 233.18,60.8 230.72,61.14C223.9,62.11 211.5,88.52 203.78,104.75ZM192.7,131.55C199.63,130.8 208.18,125.92 211.44,122.45C212.66,121.11 212.77,120 210.93,120.08C205.88,120.31 198.26,129.32 192.7,131.55Z" style="fill-rule:nonzero;"/>
    <path d="M227.04,121.1L232.79,121.1L231.52,123.78C227.29,132.33 222.41,141.16 222.13,145.03C222.01,146.88 222.86,147.96 224.62,147.79C231.72,147.08 239.77,138.5 245.19,132.87L245.64,133.47C239.8,142.1 232.33,148.9 224.1,148.9C220.07,148.9 217.49,145.75 218,141.22C218.63,135.78 223.39,127.39 227.04,121.1ZM231.35,110.99C231.35,108.25 233.24,107.71 234.7,107.71C237,107.71 237.51,109.33 237.23,111.08C236.83,113.21 235.4,114.32 233.69,114.32C232.1,114.32 231.35,113.09 231.35,110.99Z" style="fill-rule:nonzero;"/>
    <path d="M85.55,168.2L86.61,168.2L91.37,177.44L90.21,177.44L88.78,174.48L83.79,174.48L82.42,177.44L81.26,177.44L85.55,168.2ZM88.36,173.55L86.01,168.77L83.73,173.55L88.36,173.55Z" style="fill-rule:nonzero;"/>
    <path d="M101.5,169.1L97.67,169.1L97.67,168.07L106.48,168.07L106.48,169.1L102.64,169.1L102.64,177.4L101.5,177.4L101.5,169.1Z" style="fill-rule:nonzero;"/>
    <path d="M114.4,168.1L121.86,168.1L121.86,169.07L115.54,169.07L115.54,172.28L121.29,172.28L121.29,173.25L115.54,173.25L115.54,176.55L121.86,176.55L121.86,177.51L114.4,177.51L114.4,168.1Z" style="fill-rule:nonzero;"/>
    <path d="M129.75,168.1L130.85,168.1L130.85,176.5L137.5,176.5L137.5,177.46L129.75,177.46L129.75,168.1Z" style="fill-rule:nonzero;"/>
    <rect x="146.1" y="168.1" width="1.14" height="9.36" style="fill-rule:nonzero;"/>
    <path d="M157,168.1L164.45,168.1L164.45,169.07L158.14,169.07L158.14,172.28L163.89,172.28L163.89,173.25L158.14,173.25L158.14,176.55L164.45,176.55L164.45,177.51L157,177.51L157,168.1Z" style="fill-rule:nonzero;"/>
    <path d="M172.6,168.1L176.97,168.1C179.2,168.1 180.34,168.96 180.34,170.71C180.34,172.08 179.49,173.05 178.04,173.39L181.16,177.4L179.8,177.4L176.89,173.56L173.74,173.56L173.74,177.4L172.6,177.4L172.6,168.1ZM176.89,172.65C178.38,172.65 179.23,171.91 179.23,170.71C179.23,169.5 178.43,168.93 176.89,168.93L173.74,168.93L173.74,172.62L176.89,172.62L176.89,172.65Z" style="fill-rule:nonzero;"/>
</svg>
